<?xml version="1.0" encoding="UTF-8"?>
<svg id="Layer_2" data-name="Layer 2" xmlns="http://www.w3.org/2000/svg" viewBox="0 0 595.28 582.07">
  <defs>
    <style>
      .cls-1 {
        fill: #25c2a0;
      }

      .cls-2 {
        fill: none;
        stroke: #25c2a0;
        stroke-linecap: round;
        stroke-linejoin: round;
        stroke-width: 41.86px;
      }
    </style>
  </defs>
  <rect class="cls-1" x="128.86" y="122.73" width="67.3" height="67.3" rx="20.82" ry="20.82"/>
  <rect class="cls-1" x="128.86" y="393.57" width="67.3" height="67.3" rx="20.82" ry="20.82"/>
  <rect class="cls-1" x="399.11" y="122.73" width="67.3" height="67.3" rx="20.82" ry="20.82"/>
  <path class="cls-1" d="M51.99,71.14V241.64c0,13.96,11.32,25.28,25.28,25.28H247.76c13.96,0,25.28-11.32,25.28-25.28V71.14c0-13.96-11.32-25.28-25.28-25.28H77.27c-13.96,0-25.28,11.32-25.28,25.28ZM206.78,225.94H118.24c-13.96,0-25.28-11.32-25.28-25.28V112.1c0-13.96,11.32-25.28,25.28-25.28h88.54c13.96,0,25.28,11.32,25.28,25.28v88.56c0,13.96-11.32,25.28-25.28,25.28Z"/>
  <path class="cls-1" d="M322.24,71.14V241.64c0,13.96,11.32,25.28,25.28,25.28h170.49c13.96,0,25.28-11.32,25.28-25.28V71.14c0-13.96-11.32-25.28-25.28-25.28h-170.49c-13.96,0-25.28,11.32-25.28,25.28Zm154.79,154.79h-88.54c-13.96,0-25.28-11.32-25.28-25.28V112.1c0-13.96,11.32-25.28,25.28-25.28h88.54c13.96,0,25.28,11.32,25.28,25.28v88.56c0,13.96-11.32,25.28-25.28,25.28Z"/>
  <path class="cls-1" d="M51.99,341.99v170.49c0,13.96,11.32,25.28,25.28,25.28H247.76c13.96,0,25.28-11.32,25.28-25.28v-170.49c0-13.96-11.32-25.28-25.28-25.28H77.27c-13.96,0-25.28,11.32-25.28,25.28Zm154.79,154.79H118.24c-13.96,0-25.28-11.32-25.28-25.28v-88.56c0-13.96,11.32-25.28,25.28-25.28h88.54c13.96,0,25.28,11.32,25.28,25.28v88.56c0,13.96-11.32,25.28-25.28,25.28Z"/>
  <polyline class="cls-2" points="520.84 427.23 520.84 515.3 432.76 515.3"/>
  <polyline class="cls-2" points="344.69 427.23 344.69 339.15 432.76 339.15"/>
</svg>